<svg xmlns="http://www.w3.org/2000/svg" width="309" height="366" fill="none" viewBox="0 0 309 366">
    <path fill="#123F6D" fill-rule="evenodd" d="M281.743 4.049c9.274 1.829 18.376 4.272 27.257 7.31v16.705c-3.687-1.77-7.426-3.425-11.216-4.964 1.196 3.843 1.711 7.974 1.361 12.229-.289 3.473-1.134 6.782-2.413 9.824-.35-2.96-1.154-5.94-2.35-8.858-4.804-11.715-15.444-20.141-27.835-22.936-9.073-2.056-18.31-3.494-27.691-4.275 1.856 2.363 3.113 5.076 3.526 8.056.309 2.281.123 4.522-.475 6.7-2.082-4.891-7.03-9.392-13.216-12.27-5.031-2.342-10.619-3.267-16.165-3.02-24.639 1.068-48.66 6.555-70.99 16.112-.557.226-1.113.452-1.67.699.268-.144.536-.283.804-.421.268-.14.536-.278.804-.422 21.629-11.488 45.134-19.113 69.671-22.484 3.546-.472 7.092-.883 10.68-1.192.491-.04.981-.066 1.469-.091.497-.026.991-.052 1.479-.094 5.196-.37 10.392-.616 15.65-.616 9.691 0 19.299.699 28.742 1.973 4.227.555 8.413 1.212 12.578 2.035zM309 365.38v-49.089c-25.073 15.792-54.784 24.932-86.64 24.932-89.711 0-162.412-72.466-162.412-161.888 0-15.395 2.16-30.281 6.193-44.38l.236.112c.207 2.918.68 5.836 1.485 8.755 2.06 7.343 6.286 14.104 11.744 19.612-.577 5.18-.874 10.444-.874 15.779 0 2.405.082 4.768.206 7.152.392 7.892 1.423 15.599 3.072 23.101 3.691 16.914 10.413 32.718 19.567 46.796 7.361 11.325 16.268 21.518 26.454 30.315 23.031 19.873 52.515 32.533 84.928 34.362 2.721.165 5.464.247 8.227.247 10.783 0 21.278-1.233 31.381-3.494 20.93-4.699 40.112-13.964 56.433-26.72v-13.859c-12.85 11.072-27.822 19.744-44.247 25.35 3.628-5.672 6.659-11.735 8.989-18.065-9.67 9.598-21.794 17.038-35.773 21.23-8.371 2.508-16.845 3.679-25.155 3.638v.164c-24.721-1.5-47.649-9.659-66.969-22.71 7.011-.637 13.938-2.034 20.639-4.213-13.546-1.644-26.907-6.535-38.865-14.9-6.722-4.706-12.537-10.235-17.444-16.298-7.587-11.057-13.546-23.326-17.567-36.418 2.124.576 4.33.925 6.619 1.007 2.783.083 5.464-.246 8.041-.883-9.443-3.042-16.722-10.77-19.155-20.367-.37-2.59-.66-5.179-.886-7.81v-.185h-.02c-.29-3.597-.454-7.214-.454-10.893 0-2.055.061-4.11.164-6.145l-.003-.056c5.557 3.841 11.769 6.498 17.999 7.516 10.825-7.008 23.732-11.098 37.588-11.098 8.784 0 17.196 1.664 24.928 4.644 0-.02-.021-.041-.021-.041 15.505 6.433 31.423 14.88 41.011 24.992 12.927 13.646 9.711 31.732 9.711 31.732 33.072-32.883 17.856-70.041 17.856-70.041-50.351 2.137-57.65-42.317-57.65-42.317s-23.237-25.73-94.66-48.05C12.254 44.597 1.058 0 1.058 0c-2.578 65.622 70.99 92.648 70.99 92.648-38.29.411-70.99-29.163-70.99-29.163 6.953 33.858 29.29 53.293 56.571 67.339-11.871 23.917-18.547 50.853-18.547 79.34 0 66.742 36.594 124.974 90.88 155.836h177.959c.36-.205.72-.411 1.079-.619zM92.847 366H82.99c-4.553-5.715-8.826-11.681-12.794-17.869l-3.814-5.939 4.969 5.014c6.742 6.804 13.918 13.076 21.496 18.794zm49.699-192.666c10.598 0 20.598 2.672 29.34 7.378l.085.214c4.899 12.3 9.747 24.472 26.905 28.538 3.423.802 7.32 1.295 11.856 1.357-2.021 3.658-5.011 6.412-8.186 8.96-5.526 4.419-12.02 7.831-19.278 9.865-12.846 3.576-25.877 2.241-37.114-2.877-3.938-1.788-4.536-6.823-1.793-9.639 1.608-1.644 3.237-3.329 4.226-5.405 4.619-9.618-.185-18.188-12.618-25.094-2.309-1.274-4.742-2.363-7.196-3.329l-2.103-.843c-3.402-1.356-6.887-2.405-10.413-3.268 7.98-3.74 16.887-5.857 26.289-5.857zM21.701 210.33c0 7.357.474 15.064 1.382 22.895l.33 2.733-1.65-2.22c-5.258-7.07-10.02-14.612-14.144-22.463l-.124-.226.041-.247c4.784-25.731 13.774-50.496 26.763-73.617l1.34.637c-9.257 23.183-13.938 47.578-13.938 72.508zm21.608 93.573c-2.268-3.946-4.412-8.2-6.392-12.639-5.423-11.715-9.711-24.026-12.722-36.562l-1.463.205c.762 20.902 4.453 41.433 10.927 61.04l.083.246.206.144c7.732 5.138 16 9.598 24.536 13.277l2.619 1.13-1.732-2.261c-5.877-7.686-11.279-15.948-16.062-24.58z" clip-rule="evenodd"/>
</svg>
